<?xml version="1.0" encoding="UTF-8"?>
<!-- Created with Inkscape (http://www.inkscape.org/) -->
<svg width="512" height="512" version="1.1" viewBox="0 0 512 512" xmlns="http://www.w3.org/2000/svg" xmlns:cc="http://creativecommons.org/ns#" xmlns:dc="http://purl.org/dc/elements/1.1/" xmlns:rdf="http://www.w3.org/1999/02/22-rdf-syntax-ns#"><defs><filter id="a" x="-.068119" y="-.043389" width="1.1362" height="1.0868" color-interpolation-filters="sRGB"><feGaussianBlur stdDeviation="10.15612"/></filter></defs><g transform="translate(-117.46,-354.64)"><path transform="matrix(.83864 0 0 .83864 103.33 57.225)" d="m153.86 464.83c-1.8436-7.9887-11.603-4.7018 2.9884-36.102 55.217-55.525 301.65-67.579 333.95-20.63 14.061 13.745 12.834 28.496-2.9884 44.206 16.385 15.381 25.227 46.906-8.218 63.362 15.47 19.534 17.018 34.699-11.206 40.522-2.1124 33.25-2.5834 50.806-36.608 55.994 6.0913 33.628-14.439 46.056-23.907 51.574 9.1832 14.811 29.932 13.74-0.7471 44.943 35.549 7.499 48.456 24.847 23.907 44.943 15.942 5.4096 35.955 20.542 20.919 42.733 27.927 16.965 16.615 32.414-3.7355 36.838-0.40589 4.7571 1.0533 11.353-2.9884 12.525 8.764 18.508-16.97 28.249-27.643 28.734l-3.7355 5.8942c-11.287 30.686-16.152 23.367-23.907 33.155-9.248 13.647-1.5869 18.956 0 27.26-9.4433-5.2409-22.013-3.8005-20.172-33.155-8.7331-7.803-20.164-14.542 9.7122-37.575-5.6354-17.735 13.972-23.98 33.619-30.208-14.332-12.233-12.701-27.327-5.2297-43.469-20.243-11.402-46.859-0.78355-45.573-41.996-2.7876-12.794-65.206 8.4139-69.48-68.52-12.344 2.9771-57.989-0.62034-32.125-39.049-18.734-14.929-53.372-5.2093-47.067-58.942-8.2647-7.7725-40.399 15.429-14.942-36.102 0.38879-5.8283-58.485 10.154-17.93-53.784-25.381-1.3383-50.184-3.0184-26.895-33.155z" fill="#020203" filter="url(#a)"/><g stroke-width=".83864"><path d="m276.94 523.45c84.316-51.201 164.77-30.843 177.31-23.961-65.556-3.3392-131.05 5.6435-186.29 49.12 0.95907-7.2996 1.3974-14.177 8.9852-25.159z" fill="#b7c7de"/><path d="m240.4 452.76c-1.4783-6.4952-9.303-3.8228 2.3961-29.352 44.273-45.145 241.87-54.945 267.77-16.773 11.274 11.176 10.291 23.168-2.3961 35.941 13.137 12.505 20.227 38.136-6.5892 51.517 12.404 15.882 13.645 28.212-8.9852 32.947-1.6937 27.033-2.0714 41.307-29.352 45.526 4.884 27.34-11.577 37.445-19.169 41.932 7.3632 12.042 23.999 11.171-0.59903 36.54 28.504 6.0971 38.852 20.202 19.169 36.54 12.782 4.3983 28.829 16.702 16.773 34.744 22.392 13.794 13.323 26.353-2.9951 29.951-0.32544 3.8677 0.8445 9.2309-2.3961 10.184 7.027 15.048-13.606 22.968-22.164 23.362l-2.9951 4.7922c-9.0506 24.949-12.95 18.998-19.169 26.956-7.415 11.095-1.2724 15.412 0 22.164-7.5717-4.2611-17.651-3.09-16.174-26.956-7.0023-6.3442-16.168-11.823 7.7873-30.551-4.5185-14.42 11.202-19.497 26.956-24.56-11.492-9.9454-10.184-22.218-4.1932-35.343-16.231-9.2703-37.572-0.63706-36.54-34.144-2.2351-10.402-52.282 6.8409-55.71-55.71-9.8968 2.4205-46.496-0.50436-25.758-31.748-15.021-12.138-42.795-4.2354-37.739-47.922-6.6267-6.3194-32.392 12.544-11.981-29.352 0.31174-4.7387-46.893 8.2559-14.377-43.729-20.35-1.088-40.238-2.4541-21.565-26.956z" fill="#929eb4"/><path d="m406.93 686.98c16.164-12.668 33.503-23.89 59.903-23.961-23.96-4.2561-44.921 4.4869-64.096 20.966z" fill="#6a737a"/><path d="m366.8 671.7c34.632-48.678 77.574-41.932 77.574-41.932s-42.466-9.9144-85.365 33.246c2.5958 2.5917 5.1916 4.6095 7.7873 8.6858z" fill="#69717c"/><path d="m352.42 631.57c43.055-41.582 83.265-37.439 83.265-37.439-70.394-13.932-112.11 31.638-112.02 31.748 2.4624 0.35682 10.421 10.738 28.753 5.6907z" fill="#77808f"/><path d="m312.29 593.53c23.097-23.797 52.006-31.3 93.449-32.947-22.742-8.1458-105.4 12.892-111.71 24.261 4.8824 3.2403 8.1342 6.9466 18.271 8.6858z" fill="#77808f"/><path d="m240.4 452.76c40.931-34.814 103.87-47.275 176.71-40.135-27.198-10.249-94.137-19.007-180.31 23.961-1.0684 8.111 0.68559 12.835 3.5941 16.174z" fill="#b7c8df"/><path d="m250.59 509.67c57.027-57.805 197.67-51.517 197.67-51.517-8.2482 3.7117-56.885-31.1-187.49 23.362-3.8108 8.9684-9.9513 15.607-10.184 28.154z" fill="#bbd5f0"/><path d="m240.7 468.03c89.399-82.346 268.04-32.589 267.16-10.776-71.418-45.588-245.5-17.41-267.16 10.776z" fill="#b7c7de"/><path d="m265.27 521.05c15.139-20.24 42.053-22.319 63.796-29.352-21.755 1.6842-41.422-4.288-73.68 26.657 4.2007 2.2418 6.4481 2.8652 9.8842 2.6956z" fill="#767f8e"/><path d="m296.72 398.25c-10.406 11.062-3.823 12.684-0.59902 16.174-2.589 4.7922-14.933 9.5848 2.9951 14.377-14.948 13.255-15.002 19.891-1.1981 20.367-0.61838 4.6014-12.16 14.244 5.9902 10.184-6.5752 9.7844-11.23 19.568 4.1932 29.352-1.0658 5.5122-11.308 13.892 11.381 11.981-8.4627 13.017-22.799 28.428 10.184 24.56-20.771 43.106-1.3593 38.378 9.5848 43.729-2.4071 8.3931-6.9728 18.081 13.778 12.58-3.7133 7.5553-19.579 14.351 0 23.362-1.3686 9.1084-8.1049 22.094 17.971 11.381-7.5466 13.015-13.009 24.901 2.9951 25.159-1.1981 15.574 4.7922 23.162 17.971 22.763 3.1508 3.0774 2.5842 8.2788 16.174 5.3912 1.8977 2.9174-5.6855 6.8882 8.9852 8.3864 1.0792 7.1722-9.2468 16.625 5.9903 20.966 0.67194 5.623-2.8062 14.474 11.381 9.5848 0.47514 8.1357 8.4736 7.2433 16.773 5.9902-6.3896 15.574-5.5909 27.954 2.3961 37.14l-5.9903 10.184c-6.9428 0.64481-14.019 1.1571-13.178 9.5848-11.929 2.5315-11.091 8.8929-7.1883 16.174-7.3187 2.881-16.878 3.8013-11.981 17.372l1.797 22.164c1.9322-7.2293 0.40951-20.217 6.5893-20.367-2.1247-16.764 7.544-12.299 12.58-16.174-0.51538-5.6833-5.2089-12.295 7.7873-14.976 0.0576-10.667 6.9978-7.5694 11.381-9.5848 8.435-3.9157 9.303-11.074 6.5892-19.768-9.1177-4.8258-2.9707-17.284 0-28.154-5.1254-6.4662 3.7866-19.411-19.768-17.372-1.016-5.0525-5.588-8.9197-16.174-10.782 15.128-11.843 4.9061-19.212-6.5892-26.358-5.7906-12.008-11.582-15.345-17.372-11.381 4.538-8.9583 6.6108-17.772-15.574-25.159 7.5271-8.7856 19.027-17.571-4.1932-26.358 2.2553-17.017 2.709-32.053-10.782-31.748 6.4504-26.982-9.2426-12.138-15.574-14.976 6.8704-6.2655 4.4828-11.503-2.9951-16.174 17.068-8.6824 69.15-17.959-1.1981-25.159 27.434-10.495 34.189-21.46-8.3864-33.545 23.691-10.111 52.948-20.092 10.184-31.748 25.947-6.9091 20.672-14.859-1.1981-23.362 23.312-7.4822 17.852-18.162 13.178-28.753l10.184-9.5848c-29.565 0.98523-55.896 5.2047-79.072 12.58z" fill="#c3d5e9"/><path d="m482.41 537.22c-97.299-37.625-201.62 11.998-193.48 14.976-0.75542 5.8772-1.1868 10.605-1.1981 17.971 48.491-27.223 99.882-50.464 194.68-32.947z" fill="#bcd6f1"/><path d="m457.25 385.67c21.898 8.8568 27.093 48.394 2.3961 41.932 62.032 40.124 0 58.705 0 58.705 34.015 18.621 42.521 33.273 4.7922 40.733 14.988 31.085-9.5051 37.044-28.154 46.724 4.224 15.006 5.862 30.147-19.767 46.724 20.086 3.3462 33.912 9.2426 11.381 29.951 15.05 7.3868 38.472 10.17 23.362 34.144 15.986 8.2136 25.672 18.366 20.966 32.947 9.4925 13.269 16.405 25.965-2.3961 32.947 3.224 19.668-6.7261 27.358-20.966 31.149-3.8147 9.5638-5.4331 21.323-16.773 23.362-14.807 7.5108-11.193 13.18-10.782 19.169l6.7648 14.268c-3.4022-13.818-1.3611-22.02 8.2109-26.248 6.861-5.447 10.117-18.104 14.976-27.555-1.6157-1.3584 23.042 1.5282 23.362-20.966 0.9984-3.9935-0.48673-11.712 2.9951-11.981 17.71-5.274 22.124-16.565 1.8697-29.388 11.494-14.132-3.8477-33.001-16.918-34.707 26.495-24.38-8.0116-34.205-19.096-35.941 11.682-12.078 16.16-19.263 0.38725-37.212 16.402-9.8364 21.597-24.088 19.381-41.26 16.666-3.5374 29.456-9.7408 29.249-45.526 21.283-6.9995 18.643-19.219 9.0883-32.947 18.811-13.318 22.132-30.366 6.5166-52.714 29.317-35.744-29.364-55.447-50.845-56.309z" fill="#77808f"/><path d="m508.17 441.97c-23.909-10.596-48.179-21.048-89.852-24.56 26.991 1.7808 45.144-7.1448 97.039 13.178-3.0336 8.2565-4.868 8.1185-7.1883 11.381z" fill="#6a727d"/><path d="m501.58 494.69c-80.682-37.826-123.36-24.139-165.93-12.58 108.74-17.368 138.13 10.004 174.32 33.545-1.6e-4 -6.3674-1.2689-13.016-8.3864-20.966z" fill="#69717a"/><path d="m493.19 527.04c-45.188-24.683-72.857-14.326-105.42-13.778 40.977 1.8031 87.352 4.2755 104.53 20.667z" fill="#667079"/><path d="m489 556.99c-75.7-31.901-140.54-3.0162-143.77 1.1981 80.005-14.481 109.21-2.574 133.59 9.5848 5.6935-1.8699 7.5002-6.6549 10.184-10.782z" fill="#616b77"/><path d="m464.44 574.36c-45.846-16.308-87.923-5.138-128.19 19.169 37.789-15.136 75.673-29.712 126.69-3.5941 2.4555-3.8873 1.1686-10.27 1.4976-15.574z" fill="#68727b"/><path d="m456.65 603.71c-43.758-3.6177-64.656 11.338-83.265 28.154 23.453-6.7512 46.154-21.3 73.979-13.478-9.3718-4.2359 5.1996-9.7324 9.2846-14.676z" fill="#6a727d"/><path d="m451.86 640.86c-48.967 1.0494-50.933 17.766-61.101 31.748 15.842-10.158 26.154-24.676 53.913-23.661 4.344-2.6956 4.9728-5.3913 7.1883-8.0869z" fill="#69717c"/><path d="m473.73 673.5c-27.946 1.2989-40.531 16.045-54.212 27.854 14.826-5.6392 27.177-18.72 43.43-14.377z" fill="#69727b"/><path d="m443.77 722.32c11.161-1.8879 12.801-11.681 33.246 0-5.3927-7.6414-9.8347-16.135-37.739-3.5942z" fill="#667079"/><path d="m484.21 727.11c-10.229-0.97743-17.463 3.2854-24.56 7.7873 15.375-3.1948 26.358-2.3962 32.947 2.3961-1.3859-5.8611-3.8145-9.8976-8.3864-10.184z" fill="#6a737c"/><path d="m481.81 749.88c-4.3835-5.5765-16.555-2.3919-26.956-1.1981 7.3994 2.128 17.834 3.75 20.966 6.5892-1.1981-2.9951 0.7987-4.7922 5.9903-5.3913z" fill="#6a707c"/><path d="m471.63 775.04c-21.898 6.7566-30.644 1.2993-41.932-1.7971 5.7376 6.0322 16.049 13.371 16.773 17.971 4.5218-7.3236 16.372-10.983 25.159-16.174z" fill="#6b747d"/><path d="m269.75 392.26c-60.967 14.213-43.077 23.079-50.318 29.951-18.463-19.168 41.066-28.25 50.318-29.951z" fill="#6a727d"/></g><g fill="#69717a" stroke-width=".83864"><path d="m406.33 371.29c38.722 2.0222 155.45-2.5058 129.39 38.337 8.3509-24.52-47.041-34.503-129.39-38.337z"/><path d="m238.61 442.58c-35.755 14.108-44.303 23.828-30.551 29.951-7.6375-13.325 13.775-21.203 30.551-29.951z"/><path d="m260.77 536.62c-57.061 11.338-4.2961-31.392 0-30.551-15.121 16.326-34.34 34.318 0 30.551z"/><path d="m296.11 561.78c-16.285 5.0657-46.62 22.922-16.773 23.362-17.276 11.373-33.023-15.558 16.773-23.362z"/><path d="m329.72 609.04c-14.023 4.1622-40.144 18.833-14.443 19.196-14.876 9.3441-28.436-12.783 14.443-19.196z"/><path d="m357.28 640.19c-12.569 3.4652-35.981 15.68-12.945 15.981-13.333 7.7795-25.487-10.642 12.945-15.981z"/><path d="m357.28 640.19c-12.569 3.4652-35.981 15.68-12.945 15.981-13.333 7.7795-25.487-10.642 12.945-15.981z"/><path d="m410.53 676.2c-16.285 5.0657-46.62 22.922-16.773 23.362-17.276 11.373-33.023-15.558 16.773-23.362z"/><path d="m450.06 710.94c-16.285 5.0657-46.62 22.922-16.773 23.362-17.276 11.373-33.023-15.558 16.773-23.362z"/><path d="m460.12 765.32c-35.727-14.18-48.612-12.942-42.773 0.93491 3.5491-14.943 24.554-6.0351 42.773-0.93491z"/><path d="m446.97 673.56c14.999-8.1171 48.965-17.356 28.434 4.3122 20.204-4.4216 11.929-34.5-28.434-4.3122z"/><path d="m462.1 711.64c14.624-8.7746 48.146-19.512 28.598 3.0468 19.989-5.3134 10.387-34.995-28.598-3.0468z"/><path d="m435.9 624.82c15.255-8.0165 48.448-16.461 26.006 5.7255 19.586-3.882 16.28-36.161-26.006-5.7255z"/><path d="m447.07 591.93c17.455-4.3457 54.782-6.6928 28.348 7.9107 21.945-0.51522 20.635-26.446-28.348-7.9107z"/><path d="m466.23 537.93c22.283-2.2018 66.493 1.6712 28.774 14.917 25.564 3.3454 36.897-28.929-28.774-14.917z"/><path d="m504.5 521.5c76.674-38.173-19.849-37.345-24.275-32.659 30.903 4.1257 67.99 6.4186 24.275 32.659z"/><path d="m485.24 437.85c38.311-3.112 50.271 1.8399 40.63 13.402 0.97584-15.328-21.716-12.952-40.63-13.402z"/><path d="m439.48 778.89c16.868 2.5142 49.578 15.518 20.15 20.521 18.812 8.5952 30.254-20.428-20.15-20.521z"/><path d="m430.77 793.47c-27.966-14.18-38.052-12.942-33.482 0.93491 2.7782-14.943 19.221-6.0351 33.482-0.93491z"/><path d="m416.72 801.05c16.868 2.5142 49.578 15.518 20.15 20.521 18.812 8.5952 30.254-20.428-20.15-20.521z"/></g><g fill="#fff" stroke-width=".83864"><path d="m298.59 529.33c28.997-19.307 72.081-27.819 102.51-25.838-28.52 1.8943-69.325 10.104-102.51 25.838z"/><path d="m281.65 498.83c31.872-19.307 79.229-27.819 112.67-25.838-31.349 1.8943-76.2 10.104-112.67 25.838z"/><path d="m278.91 459.04c33.701-15.902 81.685-19.464 114.74-14.03-31.377-1.3626-76.837 2.1577-114.74 14.03z"/><path d="m311.3 574.23c23.005-19.307 57.188-27.819 81.327-25.838-22.628 1.8943-55.002 10.104-81.327 25.838z"/><path d="m328.25 612.35c21.088-19.307 52.422-27.819 74.549-25.838-20.742 1.8943-50.418 10.104-74.549 25.838z"/></g></g><metadata><rdf:RDF><cc:Work><dc:format>image/svg+xml</dc:format><dc:type rdf:resource="http://purl.org/dc/dcmitype/StillImage"/><cc:license rdf:resource="http://creativecommons.org/publicdomain/zero/1.0/"/><dc:publisher><cc:Agent rdf:about="http://openclipart.org/"><dc:title>Openclipart</dc:title></cc:Agent></dc:publisher><dc:date>2011-01-15T02:05:49</dc:date><dc:description>tornado cartoon style.</dc:description><dc:source>https://openclipart.org/detail/104887/tornado-by-laabadon</dc:source><dc:creator><cc:Agent><dc:title>laabadon</dc:title></cc:Agent></dc:creator><dc:subject><rdf:Bag><rdf:li>cartoon</rdf:li><rdf:li>tornado</rdf:li><rdf:li>weather</rdf:li><rdf:li>wind</rdf:li></rdf:Bag></dc:subject></cc:Work><cc:License rdf:about="http://creativecommons.org/publicdomain/zero/1.0/"><cc:permits rdf:resource="http://creativecommons.org/ns#Reproduction"/><cc:permits rdf:resource="http://creativecommons.org/ns#Distribution"/><cc:permits rdf:resource="http://creativecommons.org/ns#DerivativeWorks"/></cc:License></rdf:RDF></metadata></svg>
